ffmpeg started on 2016-12-02 at 07:40:34
Report written to "Output/x264/results/ffmpeg/old_town_cross_2160p50slower10000k.log"
Command line:
Tools/ffmpeg/ffmpeg -benchmark -y -i Input/y4m/old_town_cross_2160p50.y4m -c:v libx264 -preset slower -b:v 10000k -an Output/x264/encoded/old_town_cross_2160p50slower10000k.mkv
ffmpeg version N-82227-gdb23fde Copyright (c) 2000-2016 the FFmpeg developers
  built with gcc 5.4.0 (Ubuntu 5.4.0-6ubuntu1~16.04.2) 20160609
  configuration: --prefix=/home/jaroslav/ffmpeg_build --pkg-config-flags=--static --extra-cflags=-I/home/jaroslav/ffmpeg_build/include --extra-ldflags=-L/home/jaroslav/ffmpeg_build/lib --bindir=/home/jaroslav/bin --enable-gpl --enable-libass --enable-libfdk-aac --enable-libfreetype --enable-libmp3lame --enable-libopus --enable-libtheora --enable-libvorbis --enable-libvpx --enable-libx264 --enable-libx265 --enable-nvenc --enable-libmfx --enable-libxvid --enable-libgsm --enable-libopencore-amrnb --enable-version3 --enable-nonfree
  libavutil      55. 35.100 / 55. 35.100
  libavcodec     57. 66.101 / 57. 66.101
  libavformat    57. 57.100 / 57. 57.100
  libavdevice    57.  2.100 / 57.  2.100
  libavfilter     6. 66.100 /  6. 66.100
  libswscale      4.  3.100 /  4.  3.100
  libswresample   2.  4.100 /  2.  4.100
  libpostproc    54.  2.100 / 54.  2.100
Input #0, yuv4mpegpipe, from 'Input/y4m/old_town_cross_2160p50.y4m':
  Duration: 00:00:10.00, start: 0.000000, bitrate: 4976642 kb/s
    Stream #0:0: Video: rawvideo (I420 / 0x30323449), yuv420p(progressive), 3840x2160, SAR 1:1 DAR 16:9, 50 fps, 50 tbr, 50 tbn, 50 tbc
[libx264 @ 0x2877120] using SAR=1/1
[libx264 @ 0x2877120] DPB size (8 frames, 259200 mbs) > level limit (5 frames, 184320 mbs)
[libx264 @ 0x2877120] using cpu capabilities: MMX2 SSE2Fast SSSE3 SSE4.2 AVX FMA3 AVX2 LZCNT BMI2
[libx264 @ 0x2877120] profile High, level 5.2
[libx264 @ 0x2877120] 264 - core 148 - H.264/MPEG-4 AVC codec - Copyleft 2003-2016 - http://www.videolan.org/x264.html - options: cabac=1 ref=8 deblock=1:0:0 analyse=0x3:0x133 me=umh subme=9 psy=1 psy_rd=1.00:0.00 mixed_ref=1 me_range=16 chroma_me=1 trellis=2 8x8dct=1 cqm=0 deadzone=21,11 fast_pskip=1 chroma_qp_offset=-2 threads=6 lookahead_threads=1 sliced_threads=0 nr=0 decimate=1 interlaced=0 bluray_compat=0 constrained_intra=0 bframes=3 b_pyramid=2 b_adapt=2 b_bias=0 direct=3 weightb=1 open_gop=0 weightp=2 keyint=250 keyint_min=25 scenecut=40 intra_refresh=0 rc_lookahead=60 rc=abr mbtree=1 bitrate=10000 ratetol=1.0 qcomp=0.60 qpmin=0 qpmax=69 qpstep=4 ip_ratio=1.40 aq=1:1.00
Output #0, matroska, to 'Output/x264/encoded/old_town_cross_2160p50slower10000k.mkv':
  Metadata:
    encoder         : Lavf57.57.100
    Stream #0:0: Video: h264 (libx264) (H264 / 0x34363248), yuv420p, 3840x2160 [SAR 1:1 DAR 16:9], q=-1--1, 10000 kb/s, 50 fps, 1k tbn, 50 tbc
    Metadata:
      encoder         : Lavc57.66.101 libx264
    Side data:
      cpb: bitrate max/min/avg: 0/0/10000000 buffer size: 0 vbv_delay: -1
Stream mapping:
  Stream #0:0 -> #0:0 (rawvideo (native) -> h264 (libx264))
Press [q] to stop, [?] for help
frame=   62 fps=0.0 q=0.0 size=       0kB time=00:00:00.00 bitrate=N/A speed=   0x    frame=   67 fps= 17 q=0.0 size=       0kB time=00:00:00.00 bitrate=N/A speed=   0x    frame=   72 fps= 14 q=34.0 size=       1kB time=-00:00:00.01 bitrate=N/A speed=N/A    frame=   75 fps= 13 q=37.0 size=       1kB time=00:00:00.04 bitrate= 143.6kbits/s speed=0.00696x    frame=   77 fps= 12 q=47.0 size=       1kB time=00:00:00.08 bitrate=  72.7kbits/s speed=0.0126x    frame=   78 fps= 11 q=45.0 size=       1kB time=00:00:00.10 bitrate=  58.3kbits/s speed=0.0142x    frame=   84 fps= 11 q=44.0 size=       1kB time=00:00:00.22 bitrate=  26.6kbits/s speed=0.0277x    frame=   89 fps= 10 q=40.0 size=       1kB time=00:00:00.32 bitrate=  18.3kbits/s speed=0.0375x    frame=   92 fps=9.7 q=40.0 size=       1kB time=00:00:00.38 bitrate=  15.5kbits/s speed=0.0403x    frame=   97 fps=9.4 q=38.0 size=       1kB time=00:00:00.48 bitrate=  12.2kbits/s speed=0.0465x    frame=  100 fps=8.9 q=37.0 size=       1kB time=00:00:00.54 bitrate=  10.9kbits/s speed=0.0483x    frame=  104 fps=8.8 q=37.0 size=       1kB time=00:00:00.62 bitrate=   9.5kbits/s speed=0.0524x    frame=  107 fps=8.3 q=37.0 size=       1kB time=00:00:00.68 bitrate=   8.6kbits/s speed=0.053x    frame=  111 fps=8.3 q=36.0 size=       1kB time=00:00:00.76 bitrate=   7.7kbits/s speed=0.0568x    frame=  113 fps=8.1 q=36.0 size=       1kB time=00:00:00.80 bitrate=   7.4kbits/s speed=0.0572x    frame=  115 fps=7.7 q=36.0 size=       1kB time=00:00:00.84 bitrate=   7.0kbits/s speed=0.0565x    frame=  118 fps=7.6 q=36.0 size=       1kB time=00:00:00.90 bitrate=   6.5kbits/s speed=0.0581x    frame=  121 fps=7.5 q=36.0 size=       1kB time=00:00:00.96 bitrate=   6.1kbits/s speed=0.0596x    frame=  122 fps=7.2 q=36.0 size=       1kB time=00:00:00.98 bitrate=   6.0kbits/s speed=0.0579x    frame=  126 fps=7.1 q=35.0 size=       1kB time=00:00:01.06 bitrate=   5.5kbits/s speed=0.0597x    frame=  128 fps=7.0 q=35.0 size=       1kB time=00:00:01.10 bitrate=   5.3kbits/s speed=0.0601x    frame=  129 fps=6.8 q=35.0 size=       1kB time=00:00:01.12 bitrate=   5.3kbits/s speed=0.0591x    frame=  134 fps=6.7 q=35.0 size=       1kB time=00:00:01.22 bitrate=   4.8kbits/s speed=0.0611x    frame=  136 fps=6.5 q=35.0 size=       1kB time=00:00:01.26 bitrate=   4.7kbits/s speed=0.0603x    frame=  139 fps=6.5 q=35.0 size=       1kB time=00:00:01.32 bitrate=   4.5kbits/s speed=0.0614x    frame=  142 fps=6.3 q=35.0 size=       1kB time=00:00:01.38 bitrate=   4.3kbits/s speed=0.061x    frame=  146 fps=6.3 q=35.0 size=       1kB time=00:00:01.46 bitrate=   4.0kbits/s speed=0.0628x    frame=  148 fps=6.2 q=35.0 size=       1kB time=00:00:01.50 bitrate=   3.9kbits/s speed=0.0628x    frame=  149 fps=6.1 q=35.0 size=       1kB time=00:00:01.52 bitrate=   3.9kbits/s speed=0.062x    frame=  150 fps=6.0 q=35.0 size=       1kB time=00:00:01.54 bitrate=   3.8kbits/s speed=0.0615x    frame=  154 fps=5.9 q=35.0 size=       1kB time=00:00:01.62 bitrate=   3.6kbits/s speed=0.0621x    frame=  157 fps=5.9 q=34.0 size=       1kB time=00:00:01.68 bitrate=   3.5kbits/s speed=0.0631x    frame=  158 fps=5.8 q=34.0 size=       1kB time=00:00:01.70 bitrate=   3.5kbits/s speed=0.0623x    frame=  162 fps=5.7 q=34.0 size=       1kB time=00:00:01.78 bitrate=   3.3kbits/s speed=0.0623x    frame=  165 fps=5.6 q=34.0 size=       1kB time=00:00:01.84 bitrate=   3.2kbits/s speed=0.0627x    frame=  168 fps=5.6 q=34.0 size=       1kB time=00:00:01.90 bitrate=   3.1kbits/s speed=0.063x    frame=  170 fps=5.5 q=34.0 size=       1kB time=00:00:01.94 bitrate=   3.0kbits/s speed=0.0628x    frame=  173 fps=5.5 q=34.0 size=       1kB time=00:00:02.00 bitrate=   2.9kbits/s speed=0.0633x    frame=  176 fps=5.4 q=34.0 size=       1kB time=00:00:02.06 bitrate=   2.9kbits/s speed=0.0635x    frame=  178 fps=5.4 q=34.0 size=       1kB time=00:00:02.10 bitrate=   2.8kbits/s speed=0.0632x    frame=  180 fps=5.3 q=34.0 size=       1kB time=00:00:02.14 bitrate=   2.8kbits/s speed=0.0633x    frame=  183 fps=5.3 q=34.0 size=       1kB time=00:00:02.20 bitrate=   2.7kbits/s speed=0.0636x    frame=  185 fps=5.3 q=34.0 size=       1kB time=00:00:02.24 bitrate=   2.6kbits/s speed=0.0636x    frame=  187 fps=5.2 q=34.0 size=       1kB time=00:00:02.28 bitrate=   2.6kbits/s speed=0.0638x    frame=  189 fps=5.2 q=34.0 size=       1kB time=00:00:02.32 bitrate=   2.5kbits/s speed=0.064x    frame=  191 fps=5.1 q=34.0 size=       1kB time=00:00:02.36 bitrate=   2.5kbits/s speed=0.0635x    frame=  193 fps=5.1 q=34.0 size=       1kB time=00:00:02.40 bitrate=   2.5kbits/s speed=0.0635x    frame=  197 fps=5.1 q=34.0 size=       1kB time=00:00:02.48 bitrate=   2.4kbits/s speed=0.0644x    frame=  198 fps=5.1 q=34.0 size=       1kB time=00:00:02.50 bitrate=   2.4kbits/s speed=0.0638x    frame=  200 fps=5.0 q=34.0 size=       1kB time=00:00:02.54 bitrate=   2.3kbits/s speed=0.0638x    frame=  202 fps=5.0 q=34.0 size=       1kB time=00:00:02.58 bitrate=   2.3kbits/s speed=0.0639x    frame=  206 fps=4.9 q=34.0 size=       1kB time=00:00:02.66 bitrate=   2.2kbits/s speed=0.0636x    frame=  211 fps=5.0 q=34.0 size=       1kB time=00:00:02.76 bitrate=   2.1kbits/s speed=0.0649x    frame=  212 fps=4.9 q=34.0 size=       1kB time=00:00:02.78 bitrate=   2.1kbits/s speed=0.0645x    frame=  213 fps=4.9 q=34.0 size=       1kB time=00:00:02.80 bitrate=   2.1kbits/s speed=0.0642x    frame=  215 fps=4.8 q=34.0 size=       1kB time=00:00:02.84 bitrate=   2.1kbits/s speed=0.064x    frame=  218 fps=4.8 q=34.0 size=       1kB time=00:00:02.90 bitrate=   2.0kbits/s speed=0.0642x    frame=  222 fps=4.8 q=34.0 size=       1kB time=00:00:02.98 bitrate=   2.0kbits/s speed=0.064x    frame=  225 fps=4.8 q=34.0 size=       1kB time=00:00:03.04 bitrate=   1.9kbits/s speed=0.0646x    frame=  229 fps=4.7 q=34.0 size=       1kB time=00:00:03.12 bitrate=   1.9kbits/s speed=0.0646x    frame=  231 fps=4.7 q=34.0 size=       1kB time=00:00:03.16 bitrate=   1.9kbits/s speed=0.0644x    frame=  235 fps=4.7 q=34.0 size=       1kB time=00:00:03.24 bitrate=   1.8kbits/s speed=0.0646x    frame=  237 fps=4.6 q=34.0 size=       1kB time=00:00:03.28 bitrate=   1.8kbits/s speed=0.0643x    frame=  241 fps=4.7 q=34.0 size=       1kB time=00:00:03.36 bitrate=   1.8kbits/s speed=0.065x    frame=  243 fps=4.6 q=34.0 size=       1kB time=00:00:03.40 bitrate=   1.7kbits/s speed=0.0647x    frame=  246 fps=4.6 q=34.0 size=       1kB time=00:00:03.46 bitrate=   1.7kbits/s speed=0.0646x    frame=  248 fps=4.6 q=34.0 size=       1kB time=00:00:03.50 bitrate=   1.7kbits/s speed=0.0647x    frame=  250 fps=4.6 q=34.0 size=       1kB time=00:00:03.54 bitrate=   1.7kbits/s speed=0.0649x    frame=  252 fps=4.6 q=34.0 size=       1kB time=00:00:03.58 bitrate=   1.6kbits/s speed=0.065x    frame=  254 fps=4.5 q=34.0 size=       1kB time=00:00:03.62 bitrate=   1.6kbits/s speed=0.0647x    frame=  256 fps=4.5 q=34.0 size=       1kB time=00:00:03.66 bitrate=   1.6kbits/s speed=0.0648x    frame=  259 fps=4.5 q=34.0 size=       1kB time=00:00:03.72 bitrate=   1.6kbits/s speed=0.0651x    frame=  261 fps=4.5 q=34.0 size=       1kB time=00:00:03.76 bitrate=   1.6kbits/s speed=0.0647x    frame=  263 fps=4.5 q=34.0 size=       1kB time=00:00:03.80 bitrate=   1.5kbits/s speed=0.0647x    frame=  267 fps=4.5 q=34.0 size=       1kB time=00:00:03.88 bitrate=   1.5kbits/s speed=0.0655x    frame=  268 fps=4.5 q=34.0 size=       1kB time=00:00:03.90 bitrate=   1.5kbits/s speed=0.0652x    frame=  270 fps=4.4 q=34.0 size=       1kB time=00:00:03.94 bitrate=   1.5kbits/s speed=0.0647x    frame=  274 fps=4.5 q=34.0 size=       1kB time=00:00:04.02 bitrate=   1.5kbits/s speed=0.0654x    frame=  276 fps=4.4 q=34.0 size=       1kB time=00:00:04.06 bitrate=   1.4kbits/s speed=0.0654x    frame=  277 fps=4.4 q=34.0 size=       1kB time=00:00:04.08 bitrate=   1.4kbits/s speed=0.065x    frame=  279 fps=4.4 q=34.0 size=       1kB time=00:00:04.12 bitrate=   1.4kbits/s speed=0.065x    frame=  282 fps=4.4 q=34.0 size=       1kB time=00:00:04.18 bitrate=   1.4kbits/s speed=0.0654x    frame=  284 fps=4.4 q=34.0 size=       1kB time=00:00:04.22 bitrate=   1.4kbits/s speed=0.0654x    frame=  285 fps=4.4 q=34.0 size=       1kB time=00:00:04.24 bitrate=   1.4kbits/s speed=0.065x    frame=  288 fps=4.4 q=34.0 size=       1kB time=00:00:04.30 bitrate=   1.4kbits/s speed=0.0653x    frame=  291 fps=4.4 q=34.0 size=       1kB time=00:00:04.36 bitrate=   1.4kbits/s speed=0.0653x    frame=  294 fps=4.3 q=34.0 size=    5125kB time=00:00:04.42 bitrate=9497.3kbits/s speed=0.0653x    frame=  297 fps=4.3 q=34.0 size=    5125kB time=00:00:04.48 bitrate=9370.1kbits/s speed=0.0654x    frame=  300 fps=4.3 q=34.0 size=    5125kB time=00:00:04.54 bitrate=9246.3kbits/s speed=0.0656x    frame=  302 fps=4.3 q=34.0 size=    5125kB time=00:00:04.58 bitrate=9165.6kbits/s speed=0.0655x    frame=  304 fps=4.3 q=34.0 size=    5125kB time=00:00:04.62 bitrate=9086.2kbits/s speed=0.0655x    frame=  306 fps=4.3 q=34.0 size=    5125kB time=00:00:04.66 bitrate=9008.3kbits/s speed=0.0656x    frame=  309 fps=4.3 q=34.0 size=    5125kB time=00:00:04.72 bitrate=8893.8kbits/s speed=0.0655x    frame=  312 fps=4.3 q=34.0 size=    5125kB time=00:00:04.78 bitrate=8782.2kbits/s speed=0.0656x    frame=  315 fps=4.3 q=31.0 size=    5125kB time=00:00:04.84 bitrate=8673.3kbits/s speed=0.0655x    frame=  318 fps=4.3 q=34.0 size=    5125kB time=00:00:04.90 bitrate=8567.1kbits/s speed=0.0658x    frame=  321 fps=4.2 q=34.0 size=    5782kB time=00:00:04.96 bitrate=9547.2kbits/s speed=0.0655x    frame=  326 fps=4.3 q=35.0 size=    5782kB time=00:00:05.06 bitrate=9358.6kbits/s speed=0.0663x    frame=  327 fps=4.2 q=35.0 size=    5782kB time=00:00:05.08 bitrate=9321.7kbits/s speed=0.0659x    frame=  330 fps=4.2 q=35.0 size=    5782kB time=00:00:05.14 bitrate=9213.0kbits/s speed=0.0658x    frame=  332 fps=4.2 q=35.0 size=    5782kB time=00:00:05.18 bitrate=9141.8kbits/s speed=0.0656x    frame=  336 fps=4.2 q=35.0 size=    5782kB time=00:00:05.26 bitrate=9002.8kbits/s speed=0.0662x    frame=  337 fps=4.2 q=35.0 size=    5782kB time=00:00:05.28 bitrate=8968.7kbits/s speed=0.0659x    frame=  339 fps=4.2 q=35.0 size=    5782kB time=00:00:05.32 bitrate=8901.3kbits/s speed=0.0657x    frame=  343 fps=4.2 q=35.0 size=    5782kB time=00:00:05.40 bitrate=8769.5kbits/s speed=0.0659x    frame=  346 fps=4.2 q=35.0 size=    5782kB time=00:00:05.46 bitrate=8673.1kbits/s speed=0.0661x    frame=  347 fps=4.2 q=35.0 size=    5782kB time=00:00:05.48 bitrate=8641.5kbits/s speed=0.0659x    frame=  348 fps=4.2 q=35.0 size=    5782kB time=00:00:05.50 bitrate=8610.0kbits/s speed=0.0658x    frame=  351 fps=4.2 q=35.0 size=    5782kB time=00:00:05.56 bitrate=8517.1kbits/s speed=0.0659x    frame=  354 fps=4.1 q=35.0 size=    5782kB time=00:00:05.62 bitrate=8426.2kbits/s speed=0.0658x    frame=  357 fps=4.1 q=35.0 size=    5782kB time=00:00:05.68 bitrate=8337.2kbits/s speed=0.0659x    frame=  360 fps=4.1 q=35.0 size=    5782kB time=00:00:05.74 bitrate=8250.1kbits/s speed=0.0658x    frame=  364 fps=4.1 q=35.0 size=    5782kB time=00:00:05.82 bitrate=8136.7kbits/s speed=0.0661x    frame=  365 fps=4.1 q=35.0 size=    5782kB time=00:00:05.84 bitrate=8108.9kbits/s speed=0.0659x    frame=  368 fps=4.1 q=35.0 size=    5782kB time=00:00:05.90 bitrate=8026.4kbits/s speed=0.0658x    frame=  372 fps=4.1 q=35.0 size=    5782kB time=00:00:05.98 bitrate=7919.0kbits/s speed=0.0661x    frame=  374 fps=4.1 q=35.0 size=    5782kB time=00:00:06.02 bitrate=7866.4kbits/s speed=0.0658x    frame=  378 fps=4.1 q=35.0 size=    5782kB time=00:00:06.10 bitrate=7763.3kbits/s speed=0.0662x    frame=  380 fps=4.1 q=35.0 size=    5782kB time=00:00:06.14 bitrate=7712.7kbits/s speed=0.066x    frame=  382 fps=4.1 q=35.0 size=    5782kB time=00:00:06.18 bitrate=7662.8kbits/s speed=0.066x    frame=  383 fps=4.1 q=35.0 size=    5782kB time=00:00:06.20 bitrate=7638.1kbits/s speed=0.0659x    frame=  387 fps=4.1 q=35.0 size=    5782kB time=00:00:06.28 bitrate=7540.8kbits/s speed=0.0661x    frame=  389 fps=4.1 q=35.0 size=    5782kB time=00:00:06.32 bitrate=7493.1kbits/s speed=0.066x    frame=  391 fps=4.1 q=35.0 size=    5782kB time=00:00:06.36 bitrate=7446.0kbits/s speed=0.0659x    frame=  393 fps=4.1 q=35.0 size=    5782kB time=00:00:06.40 bitrate=7399.4kbits/s speed=0.066x    frame=  395 fps=4.0 q=35.0 size=    5782kB time=00:00:06.44 bitrate=7353.5kbits/s speed=0.0659x    frame=  399 fps=4.0 q=35.0 size=    5782kB time=00:00:06.52 bitrate=7263.3kbits/s speed=0.0659x    frame=  403 fps=4.0 q=35.0 size=    5782kB time=00:00:06.60 bitrate=7175.2kbits/s speed=0.066x    frame=  406 fps=4.0 q=34.0 size=    5782kB time=00:00:06.66 bitrate=7110.6kbits/s speed=0.0663x    frame=  407 fps=4.0 q=34.0 size=    5782kB time=00:00:06.68 bitrate=7089.3kbits/s speed=0.0661x    frame=  410 fps=4.0 q=34.0 size=    5782kB time=00:00:06.74 bitrate=7026.2kbits/s speed=0.0663x    frame=  412 fps=4.0 q=34.0 size=    5782kB time=00:00:06.78 bitrate=6984.8kbits/s speed=0.0663x    frame=  414 fps=4.0 q=34.0 size=    5782kB time=00:00:06.82 bitrate=6943.8kbits/s speed=0.0661x    frame=  417 fps=4.0 q=34.0 size=    5782kB time=00:00:06.88 bitrate=6883.3kbits/s speed=0.0663x    frame=  419 fps=4.0 q=34.0 size=    5782kB time=00:00:06.92 bitrate=6843.5kbits/s speed=0.0663x    frame=  421 fps=4.0 q=34.0 size=    5782kB time=00:00:06.96 bitrate=6804.2kbits/s speed=0.0662x    frame=  423 fps=4.0 q=34.0 size=    5782kB time=00:00:07.00 bitrate=6765.3kbits/s speed=0.0662x    frame=  427 fps=4.0 q=34.0 size=    5782kB time=00:00:07.08 bitrate=6688.9kbits/s speed=0.0664x    frame=  428 fps=4.0 q=34.0 size=    5782kB time=00:00:07.10 bitrate=6670.0kbits/s speed=0.0662x    frame=  430 fps=4.0 q=34.0 size=    5782kB time=00:00:07.14 bitrate=6632.7kbits/s speed=0.0663x    frame=  433 fps=4.0 q=34.0 size=    5782kB time=00:00:07.20 bitrate=6577.4kbits/s speed=0.0664x    frame=  434 fps=4.0 q=34.0 size=    5782kB time=00:00:07.22 bitrate=6559.2kbits/s speed=0.0661x    frame=  438 fps=4.0 q=34.0 size=    5782kB time=00:00:07.30 bitrate=6487.3kbits/s speed=0.0664x    frame=  440 fps=4.0 q=34.0 size=    5782kB time=00:00:07.34 bitrate=6452.0kbits/s speed=0.0663x    frame=  443 fps=4.0 q=34.0 size=    5782kB time=00:00:07.40 bitrate=6399.6kbits/s speed=0.0663x    frame=  446 fps=4.0 q=34.0 size=    5782kB time=00:00:07.46 bitrate=6348.2kbits/s speed=0.0663x    frame=  449 fps=4.0 q=34.0 size=    5782kB time=00:00:07.52 bitrate=6297.5kbits/s speed=0.0664x    frame=  452 fps=4.0 q=34.0 size=    5782kB time=00:00:07.58 bitrate=6247.7kbits/s speed=0.0664x    frame=  454 fps=4.0 q=34.0 size=    5782kB time=00:00:07.62 bitrate=6214.9kbits/s speed=0.0664x    frame=  457 fps=3.9 q=34.0 size=    5782kB time=00:00:07.68 bitrate=6166.4kbits/s speed=0.0662x    frame=  462 fps=3.9 q=34.0 size=    5782kB time=00:00:07.78 bitrate=6087.1kbits/s speed=0.0664x    frame=  464 fps=3.9 q=34.0 size=    5782kB time=00:00:07.82 bitrate=6056.0kbits/s speed=0.0664x    frame=  467 fps=3.9 q=34.0 size=    5782kB time=00:00:07.88 bitrate=6009.9kbits/s speed=0.0666x    frame=  470 fps=3.9 q=34.0 size=    5782kB time=00:00:07.94 bitrate=5964.5kbits/s speed=0.0664x    frame=  473 fps=3.9 q=34.0 size=    5782kB time=00:00:08.00 bitrate=5919.7kbits/s speed=0.0666x    frame=  476 fps=3.9 q=34.0 size=    5782kB time=00:00:08.06 bitrate=5875.7kbits/s speed=0.0666x    frame=  478 fps=3.9 q=34.0 size=    5782kB time=00:00:08.10 bitrate=5846.7kbits/s speed=0.0665x    frame=  480 fps=3.9 q=34.0 size=    5782kB time=00:00:08.14 bitrate=5817.9kbits/s speed=0.0665x    frame=  484 fps=3.9 q=34.0 size=    5782kB time=00:00:08.22 bitrate=5761.3kbits/s speed=0.0668x    frame=  486 fps=3.9 q=34.0 size=    5782kB time=00:00:08.26 bitrate=5733.4kbits/s speed=0.0666x    frame=  488 fps=3.9 q=34.0 size=    5782kB time=00:00:08.30 bitrate=5705.8kbits/s speed=0.0665x    frame=  492 fps=3.9 q=34.0 size=    5782kB time=00:00:08.38 bitrate=5651.3kbits/s speed=0.0667x    frame=  494 fps=3.9 q=34.0 size=    5782kB time=00:00:08.42 bitrate=5624.5kbits/s speed=0.0667x    frame=  496 fps=3.9 q=34.0 size=    5782kB time=00:00:08.46 bitrate=5597.9kbits/s speed=0.0667x    frame=  498 fps=3.9 q=34.0 size=    5782kB time=00:00:08.50 bitrate=5571.6kbits/s speed=0.0666x    frame=  500 fps=3.9 q=34.0 size=    5782kB time=00:00:08.54 bitrate=5545.5kbits/s speed=0.0665x    frame=  500 fps=3.4 q=-1.0 Lsize=   12234kB time=00:00:09.94 bitrate=10081.4kbits/s speed=0.0676x    
video:12229kB audio:0kB subtitle:0kB other streams:0kB global headers:0kB muxing overhead: 0.036749%
bench: utime=571.396s
bench: maxrss=2613080kB
[libx264 @ 0x2877120] frame I:3     Avg QP:30.01  size:472488
[libx264 @ 0x2877120] frame P:138   Avg QP:32.58  size: 45394
[libx264 @ 0x2877120] frame B:359   Avg QP:34.51  size: 13483
[libx264 @ 0x2877120] consecutive B-frames:  1.0%  2.0% 23.4% 73.6%
[libx264 @ 0x2877120] mb I  I16..4: 20.9% 73.2%  5.9%
[libx264 @ 0x2877120] mb P  I16..4:  0.1%  0.1%  0.0%  P16..4: 39.6%  2.0%  6.7%  0.0%  0.0%    skip:51.6%
[libx264 @ 0x2877120] mb B  I16..4:  0.0%  0.0%  0.0%  B16..8: 47.2%  0.1%  0.0%  direct: 0.1%  skip:52.6%  L0:48.7% L1:51.2% BI: 0.0%
[libx264 @ 0x2877120] final ratefactor: 26.37
[libx264 @ 0x2877120] 8x8 transform intra:71.8% inter:67.7%
[libx264 @ 0x2877120] direct mvs  spatial:99.2% temporal:0.8%
[libx264 @ 0x2877120] coded y,uvDC,uvAC intra: 90.1% 72.6% 52.6% inter: 3.0% 3.9% 0.0%
[libx264 @ 0x2877120] i16 v,h,dc,p: 18% 26% 22% 34%
[libx264 @ 0x2877120] i8 v,h,dc,ddl,ddr,vr,hd,vl,hu:  4%  7%  1% 14% 19% 14% 19%  9% 12%
[libx264 @ 0x2877120] i4 v,h,dc,ddl,ddr,vr,hd,vl,hu:  3%  4%  1% 14% 18% 15% 20% 11% 16%
[libx264 @ 0x2877120] i8c dc,h,v,p: 43% 30% 15% 11%
[libx264 @ 0x2877120] Weighted P-Frames: Y:0.7% UV:0.0%
[libx264 @ 0x2877120] ref P L0: 58.2% 19.5% 11.9%  2.6%  2.5%  2.1%  2.4%  0.8%  0.0%
[libx264 @ 0x2877120] ref B L0: 78.7%  7.8%  7.4%  2.0%  1.9%  1.5%  0.7%
[libx264 @ 0x2877120] ref B L1: 96.1%  3.9%
[libx264 @ 0x2877120] kb/s:10017.70
